# AST/ASF file generated using VICON BodyLanguage
# -----------------------------------------------
:version 1.10
:name VICON
:units
  mass 1.0
  length 0.45
  angle deg
:documentation
   .ast/.asf automatically generated from VICON data using
   VICON BodyBuilder and BodyLanguage model FoxedUp or BRILLIANT.MOD
:root
   order TX TY TZ RX RY RZ
   axis XYZ
   position 0 0 0  
   orientation 0 0 0 
:bonedata
  begin
     id 1 
     name lhipjoint
     direction 0.603808 -0.713975 0.35448 
     length 2.2025 
     axis 0 0 0  XYZ
  end
  begin
     id 2 
     name lfemur
     direction 0.34202 -0.939693 0  
     length 6.55877  
     axis 0 0 20  XYZ
    dof rx ry rz
    limits (-160.0 20.0)
           (-70.0 70.0)
           (-60.0 70.0)
  end
  begin
     id 3 
     name ltibia
     direction 0.34202 -0.939693 0   
     length 6.80302   
     axis 0 0 20   XYZ
    dof rx
    limits (-10.0 170.0)
  end
  begin
     id 4 
     name lfoot
     direction 0.091848 -0.25235 0.963267   
     length 2.03446   
     axis -90 7.62852e-016 20   XYZ
    dof rx rz
    limits (-45.0 90.0)
           (-70.0 20.0)
  end
  begin
     id 5 
     name ltoes
     direction 1.53608e-011 -4.21925e-011 1   
     length 1.02033   
     axis -90 7.62852e-016 20   XYZ
    dof rx
    limits (-90.0 20.0)
  end
  begin
     id 6 
     name rhipjoint
     direction -0.587285 -0.724947 0.359928   
     length 2.16916  
     axis 0 0 0  XYZ 
  end
  begin
     id 7 
     name rfemur
     direction -0.34202 -0.939693 0   
     length 6.43173   
     axis 0 0 -20   XYZ
    dof rx ry rz
    limits (-160.0 20.0)
           (-70.0 70.0)
           (-70.0 60.0)
  end
  begin
     id 8 
     name rtibia
     direction -0.34202 -0.939693 0   
     length 6.70662   
     axis 0 0 -20   XYZ
    dof rx
    limits (-10.0 170.0)
 end
 begin
     id 9 
     name rfoot
     direction -0.11854 -0.325686 0.938018   
     length 2.0773  
     axis -90 -7.62852e-016 -20   XYZ
    dof rx rz
    limits (-45.0 90.0)
           (-20.0 70.0)
  end
  begin
     id 10 
     name rtoes
     direction -1.53547e-011 -4.21838e-011 1   
     length 1.03267   
     axis -90 -7.62852e-016 -20   XYZ
    dof rx
    limits (-90.0 20.0)
  end
  begin
     id 11 
     name lowerback
     direction -0.0286554 0.999539 0.0100613   
     length 2.08751   
     axis 0 0 0   XYZ
    dof rx ry rz
    limits (-20.0 45.0)
           (-30.0 30.0)
           (-30.0 30.0)
  end
  begin
     id 12 
     name upperback
     direction 0.0227093 0.999705 -0.00860929   
     length 2.08517   
     axis 0 0 0   XYZ
    dof rx ry rz
    limits (-20.0 45.0)
           (-30.0 30.0)
           (-30.0 30.0)
  end
  begin
     id 13 
     name thorax
     direction 0.0351627 0.999285 -0.013892   
     length 2.08412   
     axis 0 0 0   XYZ
    dof rx ry rz
    limits (-20.0 45.0)
           (-30.0 30.0)
           (-30.0 30.0)
  end
  begin
     id 14 
     name lowerneck
     direction -0.0696283 0.997344 0.0213922   
     length 1.44164   
     axis 0 0 0   XYZ
    dof rx ry rz
    limits (-20.0 45.0)
           (-30.0 30.0)
           (-30.0 30.0)
  end
  begin
     id 15 
     name upperneck
     direction 0.0531 0.990412 -0.127531   
     length 1.45022   
     axis 0 0 0   XYZ
    dof rx ry rz
    limits (-20.0 45.0)
           (-30.0 30.0)
           (-30.0 30.0)
  end
  begin
     id 16
     name head
     direction 0.0188154 0.998548 -0.0504727  
     length 1.45845  
     axis 0 0 0   XYZ
    dof rx ry rz
    limits (-20.0 45.0)
           (-30.0 30.0)
           (-30.0 30.0)
  end
  begin
     id 17 
     name lclavicle
     direction 0.961559 0.260051 0.088188  
     length 2.86057  
     axis 0 0 0   XYZ
    dof ry rz
    limits (-20.0 10.0)
           (0.0 20.0)
  end
  begin
     id 18 
     name lhumerus
     direction 1 -4.48959e-011 2.88185e-027   
     length 4.36901   
     axis 180 -30 -90   XYZ
    dof rx ry rz
    limits (-60.0 90.0)
           (-90.0 90.0)
           (-90.0 90.0)
  end
  begin
     id 19
     name lradius
     direction 1 -4.48965e-011 -3.92618e-028   
     length 3.21737   
     axis 180 -30 -90   XYZ
    dof rx
    limits (-10.0 170.0)
  end
  begin
     id 20
     name lwrist
     direction 1 -4.49037e-011 2.57246e-027   
     length 1.60869   
     axis -1.61769e-015 90 90   XYZ
    dof ry
    limits (-180.0 0.0)
 end
  begin
     id 21 
     name lhand
     direction 1 -4.48807e-011 5.12958e-027   
     length 0.564313   
     axis -3.27988e-015 90 90   XYZ
    dof rx rz
    limits (-90.0 90.0)
           (-45.0 45.0)
  end
  begin
     id 22 
     name lfingers
     direction 1 -4.48879e-011 1.02687e-026   
     length 0.454963   
     axis -6.5598e-015 90 90   XYZ
    dof rx
    limits (0.0 90.0)
  end
  begin
     id 23
     name lthumb
     direction 0.707107 -6.3475e-011 0.707107   
     length 0.653239   
     axis -90 45 2.19363e-014   XYZ
    dof rx rz
    limits (-45.0 45.0)
           (-45.0 45.0)
  end
  begin
     id 24 
     name rclavicle
     direction -0.954677 0.253915 0.155304   
     length 3.11497  
     axis 0 0 0   XYZ 
    dof ry rz
    limits (-10.0 20.0)
           (-20.0 0.0)
  end
  begin
     id 25 
     name rhumerus
     direction -1 -4.48958e-011 -8.20169e-028  
     length 4.34118   
     axis 180 30 90   XYZ
    dof rx ry rz
    limits (-90.0 60.0)
           (-90.0 90.0)
           (-90.0 90.0)
  end
  begin
     id 26 
     name rradius
     direction -1 -4.48978e-011 1.5676e-027   
     length 3.09531   
     axis 180 30 90   XYZ
    dof rx
    limits (-10.0 170.0)
  end
  begin
     id 27 
     name rwrist
     direction -1 -4.49001e-011 2.57123e-027   
     length 1.54765   
     axis -1.61769e-015 -90 -90   XYZ
    dof ry
    limits (-180.0 0.0)
  end
  begin
     id 28
     name rhand
     direction -1 -4.48847e-011 5.13225e-027   
     length 0.597446   
     axis -3.27988e-015 -90 -90   XYZ
    dof rx rz
    limits (-90.0 90.0)
           (-45.0 45.0)
  end
  begin
     id 29
     name rfingers
     direction -1 -4.49094e-011 1.02974e-026   
     length 0.481677   
     axis -6.5598e-015 -90 -90   XYZ
    dof rx
    limits (0.0 90.0)
  end
  begin
     id 30
     name rthumb
     direction -0.707107 -6.34859e-011 0.707107   
     length 0.691594   
     axis -90 -45 -2.19363e-014   XYZ
    dof rx rz
    limits (-45.0 45.0)
           (-45.0 45.0)
  end
:hierarchy
  begin
    root lhipjoint rhipjoint lowerback
    lhipjoint lfemur
    lfemur ltibia
    ltibia lfoot
    lfoot ltoes
    rhipjoint rfemur
    rfemur rtibia
    rtibia rfoot
    rfoot rtoes
    lowerback upperback
    upperback thorax
    thorax lowerneck lclavicle rclavicle
    lowerneck upperneck
    upperneck head
    lclavicle lhumerus
    lhumerus lradius
    lradius lwrist
    lwrist lhand lthumb
    lhand lfingers
    rclavicle rhumerus
    rhumerus rradius
    rradius rwrist
    rwrist rhand rthumb
    rhand rfingers
  end

#!OML:ASF I:\Acrobat_Osman\acrobat\cartwheel_test 2\Patient 1\Session 1\acrobat.ASF
:FULLY-SPECIFIED
:DEGREES
387
root -0.462391 15.6332 -9.06901 187.464 524.964 -177.959
lowerback -0.843166 -4.21484 -2.99064
upperback 1.88841 -5.61682 2.38723
thorax 2.94719 -2.89816 3.9172
lowerneck 2.08358 -16.0626 -15.388
upperneck -0.0262214 -22.1079 15.796
head 3.13254 -11.0768 6.00963
rclavicle 3.02153e-014 7.15625e-015
rhumerus -47.6211 10.7978 -80.5404
rradius 85.8911
rwrist -8.92449
rhand -23.7536 36.8952
rfingers 7.12502
rthumb 2.71535 6.9327
lclavicle 3.02153e-014 7.15625e-015
lhumerus -49.558 -18.2046 95.1554
lradius 112.614
lwrist 22.8786
lhand -12.7319 -320.714
lfingers 7.12502
lthumb 13.3516 -1011.16
rfemur -18.8104 14.4026 16.5775
rtibia 30.1012
rfoot -20.3345 -1.09232
rtoes -19.632
lfemur -27.263 27.3392 -22.5445
ltibia 57.4116
lfoot -15.0685 0.0621556
ltoes -10.9829
388
root -0.41503 15.646 -9.07503 187.391 525.327 -177.858
lowerback -1.0482 -4.25338 -3.23608
upperback 1.8521 -5.65714 2.30882
thorax 3.04513 -2.92358 3.9556
lowerneck 2.26149 -16.1049 -15.3577
upperneck 0.218159 -22.201 15.5989
head 3.16292 -11.1279 5.94545
rclavicle 1.70955e-014 -1.03368e-014
rhumerus -47.5731 10.9201 -80.5325
rradius 85.8234
rwrist -8.71537
rhand -23.1847 36.8853
rfingers 7.12502
rthumb 3.26474 6.93053
lclavicle 1.70955e-014 -1.03368e-014
lhumerus -50.0375 -18.2072 95.487
lradius 112.611
lwrist 22.332
lhand -12.654 -320.804
lfingers 7.12502
lthumb 13.4267 -1011.26
rfemur -18.4055 14.4495 16.2592
rtibia 29.4688
rfoot -20.082 -0.748159
rtoes -18.6301
lfemur -26.3082 26.4385 -21.2613
ltibia 55.9542
lfoot -15.8039 1.77908
ltoes -8.9951
389
root -0.364921 15.6549 -9.08078 187.369 525.725 -177.794
lowerback -1.34427 -4.29181 -3.5114
upperback 1.8174 -5.69475 2.29424
thorax 3.20582 -2.95053 4.069
lowerneck 2.25533 -16.136 -15.4968
upperneck 0.568989 -22.2726 15.4564
head 3.27638 -11.1595 5.89803
rclavicle 4.4329e-014 6.36111e-015
rhumerus -47.3992 11.2035 -80.4694
rradius 85.6891
rwrist -8.22956
rhand -22.7914 36.7281
rfingers 7.12502
rthumb 3.64459 6.7795
lclavicle 4.4329e-014 6.36111e-015
lhumerus -50.352 -18.1038 95.8266
lradius 112.417
lwrist 21.6721
lhand -12.7765 -320.839
lfingers 7.12502
lthumb 13.3086 -1011.28
rfemur -18.0672 14.2707 15.9713
rtibia 28.7965
rfoot -19.939 -0.38243
rtoes -20.7595
lfemur -25.261 25.4744 -20.008
ltibia 54.0605
lfoot -16.3384 4.10488
ltoes -9.21525
390
root -0.31481 15.6683 -9.08416 187.224 526.043 -177.917
lowerback -1.55796 -4.32004 -3.66513
upperback 1.77518 -5.72369 2.31829
thorax 3.30354 -2.9699 4.16218
lowerneck 2.41889 -16.1575 -15.5918
upperneck 0.740012 -22.3406 15.4206
head 3.31737 -11.1985 5.89845
rclavicle -3.27001e-014 9.14409e-015
rhumerus -47.2287 11.3109 -80.4288
rradius 85.5655
rwrist -7.68533
rhand -22.7549 37.1246
rfingers 7.12502
rthumb 3.67977 7.17665
lclavicle -3.27001e-014 9.14409e-015
lhumerus -50.7203 -18.0597 96.11
lradius 112.161
lwrist 21.0486
lhand -12.7753 -320.868
lfingers 7.12502
lthumb 13.3097 -1011.31
rfemur -17.5972 14.4562 15.8867
rtibia 28.0736
rfoot -18.3538 0.959029
rtoes -4.56461
lfemur -23.9555 24.3738 -18.4801
ltibia 51.7982
lfoot -16.6748 6.40506
ltoes -9.2983
391
root -0.258448 15.6868 -9.09003 187.127 526.307 -178.022
lowerback -1.80338 -4.32377 -3.82921
upperback 1.74939 -5.71762 2.33206
thorax 3.43265 -2.97282 4.24947
lowerneck 2.64924 -16.2422 -15.4904
upperneck 0.635317 -22.4718 15.3965
head 3.25487 -11.274 5.88842
rclavicle 1.31198e-014 -1.98785e-014
rhumerus -46.9362 11.2099 -80.4003
rradius 85.4747
rwrist -7.27716
rhand -23.0598 38.068
rfingers 7.12502
rthumb 3.38534 8.1151
lclavicle 1.31198e-014 -1.98785e-014
lhumerus -51.0571 -18.1459 96.3251
lradius 111.931
lwrist 20.7226
lhand -12.7741 -320.843
lfingers 7.12502
lthumb 13.311 -1011.29
rfemur -17.1553 14.8755 15.7307
rtibia 27.3479
rfoot -18.0722 0.955994
rtoes -3.5352
lfemur -22.4827 22.736 -16.9169
ltibia 49.246
lfoot -17.3035 8.02893
ltoes -4.81488
392
root -0.191171 15.7087 -9.10164 187.198 526.538 -178.034
lowerback -2.18213 -4.34103 -3.99276
upperback 1.72172 -5.72428 2.3387
thorax 3.63558 -2.9833 4.31787
lowerneck 2.7196 -16.35 -15.4373
upperneck 0.490174 -22.6131 15.4085
head 3.21693 -11.3481 5.87982
rclavicle 3.35946e-014 -3.53837e-014
rhumerus -46.597 11.2651 -80.3488
rradius 85.5246
rwrist -7.253
rhand -23.2361 38.519
rfingers 7.12502
rthumb 3.21511 8.56352
lclavicle 3.35946e-014 -3.53837e-014
lhumerus -51.2659 -18.1415 96.4726
lradius 111.705
lwrist 20.6135
lhand -12.8592 -320.95
lfingers 7.12502
lthumb 13.2289 -1011.39
rfemur -16.8788 15.0951 15.3925
rtibia 26.5544
rfoot -19.2519 -0.0674347
rtoes -21.0788
lfemur -21.0673 20.786 -15.7063
ltibia 46.439
lfoot -17.7717 10.3078
ltoes -2.787
